<svg width="50" height="50" viewBox="0 0 50 50" fill="none" xmlns="http://www.w3.org/2000/svg">
<rect width="50" height="50" rx="12" fill="#7662EA"/>
<circle cx="25" cy="25" r="15" fill="#ECE9FF"/>
<g clip-path="url(#clip0_1_131)">
<path d="M32.0375 25C32.039 25.2051 31.9766 25.4055 31.859 25.5735C31.7414 25.7415 31.5744 25.8687 31.3813 25.9375L27.3875 27.3875L25.9375 31.3813C25.8665 31.5726 25.7386 31.7377 25.571 31.8542C25.4034 31.9708 25.2041 32.0333 25 32.0333C24.7959 32.0333 24.5966 31.9708 24.429 31.8542C24.2614 31.7377 24.1335 31.5726 24.0625 31.3813L22.6125 27.3875L18.6188 25.9375C18.4274 25.8665 18.2623 25.7386 18.1458 25.571C18.0292 25.4034 17.9667 25.2041 17.9667 25C17.9667 24.7959 18.0292 24.5966 18.1458 24.429C18.2623 24.2614 18.4274 24.1335 18.6188 24.0625L22.6125 22.6125L24.0625 18.6188C24.1335 18.4274 24.2614 18.2623 24.429 18.1458C24.5966 18.0292 24.7959 17.9667 25 17.9667C25.2041 17.9667 25.4034 18.0292 25.571 18.1458C25.7386 18.2623 25.8665 18.4274 25.9375 18.6188L27.3875 22.6125L31.3813 24.0625C31.5744 24.1313 31.7414 24.2585 31.859 24.4265C31.9766 24.5945 32.039 24.7949 32.0375 25Z" fill="#7662EA"/>
</g>
<defs>
<clipPath id="clip0_1_131">
<rect width="16" height="16" fill="white" transform="translate(17 17)"/>
</clipPath>
</defs>
</svg>
