<svg width="12" height="12" viewBox="0 0 12 12" fill="none" xmlns="http://www.w3.org/2000/svg">
<g clip-path="url(#clip0_1_61)">
<path d="M10.6917 6C10.6927 6.13671 10.6511 6.27034 10.5727 6.38233C10.4943 6.49433 10.383 6.57915 10.2542 6.625L7.59167 7.59167L6.625 10.2542C6.57764 10.3818 6.49237 10.4918 6.38065 10.5695C6.26892 10.6472 6.13609 10.6888 6 10.6888C5.86391 10.6888 5.73108 10.6472 5.61935 10.5695C5.50763 10.4918 5.42236 10.3818 5.375 10.2542L4.40833 7.59167L1.74583 6.625C1.61825 6.57764 1.50821 6.49237 1.43051 6.38065C1.35281 6.26892 1.31116 6.13609 1.31116 6C1.31116 5.86391 1.35281 5.73108 1.43051 5.61935C1.50821 5.50763 1.61825 5.42236 1.74583 5.375L4.40833 4.40833L5.375 1.74583C5.42236 1.61825 5.50763 1.50821 5.61935 1.43051C5.73108 1.35281 5.86391 1.31116 6 1.31116C6.13609 1.31116 6.26892 1.35281 6.38065 1.43051C6.49237 1.50821 6.57764 1.61825 6.625 1.74583L7.59167 4.40833L10.2542 5.375C10.383 5.42086 10.4943 5.50567 10.5727 5.61767C10.6511 5.72967 10.6927 5.86329 10.6917 6Z" fill="white"/>
</g>
<defs>
<clipPath id="clip0_1_61">
<rect width="10.6667" height="10.6667" fill="white" transform="translate(0.666687 0.666656)"/>
</clipPath>
</defs>
</svg>
